<!DOCTYPE svg PUBLIC "-//W3C//DTD SVG 1.1//EN" "http://www.w3.org/Graphics/SVG/1.1/DTD/svg11.dtd">
<!-- Uploaded to: SVG Repo, www.svgrepo.com, Transformed by: SVG Repo Mixer Tools -->
<svg height="800px" width="800px" version="1.1" id="Layer_1" xmlns="http://www.w3.org/2000/svg" xmlns:xlink="http://www.w3.org/1999/xlink" viewBox="0 0 512 512" xml:space="preserve" fill="#000000">
<g id="SVGRepo_bgCarrier" stroke-width="0"/>
<g id="SVGRepo_tracerCarrier" stroke-linecap="round" stroke-linejoin="round"/>
<g id="SVGRepo_iconCarrier"> <path style="fill:#141d48;" d="M189.278,188.857L353.735,24.4c18.601-18.602,48.76-18.602,67.362,0l80.454,80.454l-22.279,22.279 l-39.084-39.085c-9.932-9.932-26.034-9.932-35.966,0.002L246.347,245.925l-0.421,0.421L88.051,404.22 c-9.933,9.934-9.933,26.036-0.001,35.967l39.084,39.083l-22.279,22.279l-80.453-80.453c-18.602-18.602-18.602-48.76,0-67.362 l164.456-164.458L189.278,188.857z"/> <path d="M508.94,97.466l-80.454-80.454C417.516,6.043,402.93,0,387.416,0c-15.515,0-30.099,6.042-41.07,17.012L17.012,346.347 C6.042,357.318,0,371.904,0,387.417s6.042,30.099,17.012,41.07l80.453,80.453c2.041,2.041,4.715,3.06,7.388,3.06 c2.675,0,5.348-1.02,7.388-3.06l22.279-22.279c1.959-1.959,3.061-4.617,3.061-7.388c0-2.771-1.101-5.429-3.061-7.388L95.437,432.8 c-5.842-5.841-5.841-15.347,0.001-21.189l1.25-1.25l49.754,49.753c2.041,2.041,4.715,3.06,7.388,3.06 c2.674,0,5.348-1.021,7.388-3.06c4.08-4.08,4.08-10.697,0-14.777l-49.754-49.753l10.095-10.095l49.755,49.754 c2.041,2.041,4.715,3.06,7.388,3.06c2.676,0,5.348-1.021,7.388-3.06c4.08-4.08,4.08-10.697,0-14.777l-49.755-49.754l10.096-10.096 l49.754,49.755c2.041,2.041,4.715,3.06,7.388,3.06c2.674,0,5.348-1.021,7.388-3.06c4.08-4.08,4.08-10.697,0-14.777l-49.754-49.755 l10.095-10.096l49.753,49.754c2.041,2.041,4.715,3.06,7.388,3.06c2.674,0,5.348-1.021,7.388-3.06c4.08-4.08,4.08-10.697,0-14.777 l-49.753-49.754l10.094-10.095l49.754,49.754c2.041,2.041,4.716,3.06,7.388,3.06c2.675,0,5.348-1.02,7.388-3.06 c4.08-4.08,4.08-10.697,0-14.778l-49.754-49.754l10.096-10.096l49.754,49.754c2.041,2.041,4.715,3.06,7.388,3.06 c2.675,0,5.348-1.02,7.388-3.06c4.08-4.08,4.08-10.697,0-14.778l-49.754-49.754l10.096-10.096l49.753,49.754 c2.041,2.041,4.715,3.06,7.388,3.06s5.348-1.021,7.388-3.06c4.08-4.08,4.08-10.697,0-14.777l-49.753-49.755l10.094-10.096 l49.754,49.754c2.041,2.041,4.715,3.06,7.388,3.06c2.675,0,5.348-1.02,7.388-3.06c4.08-4.08,4.08-10.697,0-14.778l-49.754-49.754 l10.095-10.095l49.755,49.754c2.041,2.041,4.715,3.061,7.388,3.061c2.675,0,5.348-1.021,7.388-3.061c4.08-4.08,4.08-10.697,0-14.777 l-49.755-49.754l10.095-10.095l49.755,49.754c2.041,2.041,4.715,3.061,7.388,3.061c2.675,0,5.348-1.02,7.388-3.061 c4.08-4.08,4.08-10.697,0-14.778l-49.755-49.754l10.096-10.096l49.754,49.754c2.041,2.041,4.715,3.061,7.388,3.061 c2.675,0,5.348-1.02,7.388-3.061c4.08-4.08,4.08-10.697,0-14.778l-49.754-49.754l10.096-10.096l49.752,49.754 c2.041,2.041,4.715,3.061,7.388,3.061c2.674,0,5.348-1.021,7.388-3.061c4.08-4.08,4.08-10.697,0-14.777l-49.752-49.755 l10.094-10.095l49.754,49.754c2.041,2.041,4.715,3.061,7.388,3.061s5.348-1.02,7.388-3.061c4.08-4.08,4.08-10.697,0-14.778 l-49.754-49.754l1.673-1.672c2.831-2.832,6.594-4.39,10.596-4.39c4.001,0,7.764,1.558,10.593,4.388l39.084,39.085 c1.959,1.96,4.617,3.061,7.388,3.061c2.771,0,5.428-1.101,7.388-3.061l22.279-22.279C513.021,108.162,513.021,101.546,508.94,97.466 z M479.272,112.358l-31.696-31.697c-6.776-6.776-15.786-10.509-25.37-10.509c-9.585,0-18.596,3.733-25.373,10.511L80.661,396.833 c-13.99,13.991-13.99,36.755-0.001,50.744l31.696,31.695l-7.502,7.502L31.789,413.71c-7.023-7.024-10.891-16.361-10.891-26.293 c0-9.932,3.868-19.269,10.892-26.293L361.124,31.789c7.023-7.023,16.361-10.891,26.293-10.891c9.932,0,19.269,3.868,26.293,10.891 l73.065,73.065L479.272,112.358z"/> <path d="M177.475,246.611l-3.308,3.307c-4.08,4.08-4.081,10.696-0.002,14.777c2.041,2.042,4.716,3.062,7.39,3.062 c2.673,0,5.347-1.02,7.387-3.059l3.308-3.307c4.08-4.08,4.081-10.696,0.002-14.777C188.173,242.533,181.557,242.533,177.475,246.611 z"/> <path d="M150.264,273.822l-71.767,71.766c-4.08,4.08-4.08,10.697,0,14.777c2.041,2.041,4.715,3.06,7.388,3.06 s5.348-1.021,7.388-3.06l71.767-71.766c4.08-4.08,4.08-10.697,0-14.777C160.96,269.743,154.346,269.743,150.264,273.822z"/> </g>
</svg>