<?xml version="1.0" encoding="UTF-8"?><svg xmlns="http://www.w3.org/2000/svg" viewBox="0 0 193.3 116.285"><g id="a"><g><g><path d="m3.688,109.225c.186-.215.396-.387.63-.514.233-.128.503-.193.809-.193.259,0,.492.05.7.149.209.099.385.242.53.43.145.187.256.414.334.682.077.268.116.569.116.904,0,.357-.044.683-.131.976-.088.294-.214.545-.378.753-.165.209-.365.37-.6.485-.236.115-.501.173-.794.173-.291,0-.536-.055-.736-.164-.199-.109-.373-.264-.52-.464l-.039.401c-.025.111-.091.166-.202.166h-.502v-6.427h.782v2.644Zm0,2.717c.142.193.298.328.469.407.17.078.357.117.56.117.415,0,.736-.147.955-.441.221-.293.332-.731.332-1.312,0-.541-.098-.94-.296-1.194-.195-.254-.475-.383-.838-.383-.254,0-.474.059-.662.175-.187.117-.362.281-.521.494v2.137Z" style="fill:#132c50;"/><path d="m11.93,108.588l-2.464,5.723c-.027.058-.06.105-.099.14-.039.034-.099.053-.181.053h-.575l.806-1.755-1.823-4.162h.672c.066,0,.12.016.159.05.039.033.066.07.081.111l1.183,2.784c.046.122.086.25.117.384.04-.137.084-.266.131-.389l1.147-2.779c.017-.046.048-.085.091-.116.042-.03.088-.045.142-.045h.615Z" style="fill:#132c50;"/><path d="m26.865,110.13v4.801c-.629.455-1.3.793-2.014,1.018-.712.224-1.493.336-2.344.336-1.007,0-1.913-.156-2.722-.468-.809-.31-1.5-.748-2.073-1.309-.573-.562-1.014-1.235-1.323-2.021-.308-.786-.462-1.65-.462-2.593,0-.954.149-1.824.45-2.61.299-.786.726-1.459,1.278-2.021.554-.561,1.226-.996,2.016-1.305.792-.308,1.676-.462,2.654-.462.495,0,.956.037,1.38.109.425.073.817.177,1.179.314.361.137.694.303,1.003.497.309.195.598.416.864.66l-.479.767c-.076.117-.174.192-.293.224-.12.032-.252.004-.397-.083-.139-.082-.299-.181-.48-.297-.181-.116-.401-.228-.659-.336-.259-.107-.565-.199-.916-.275-.353-.076-.77-.113-1.252-.113-.704,0-1.342.115-1.912.344-.571.23-1.057.558-1.458.986-.401.428-.71.945-.925,1.554-.216.609-.324,1.29-.324,2.047,0,.786.112,1.488.337,2.108.224.621.544,1.147.96,1.581.415.432.92.764,1.514.99.593.227,1.26.341,1.999.341.582,0,1.098-.066,1.549-.197.451-.131.891-.313,1.322-.545v-2.75h-1.946c-.11,0-.199-.032-.266-.095-.066-.065-.1-.143-.1-.236v-.96h3.842Z" style="fill:#132c50;"/><path d="m31.158,109.075c.278-.606.623-1.079,1.03-1.419.407-.341.905-.511,1.492-.511.187,0,.367.021.538.061.171.04.325.105.458.192l-.114,1.161c-.034.145-.122.219-.262.219-.082,0-.2-.017-.358-.052s-.335-.053-.533-.053c-.28,0-.528.04-.747.122-.218.082-.413.203-.584.363-.172.16-.326.357-.463.593-.137.236-.26.506-.37.808v5.586h-1.563v-8.842h.891c.169,0,.285.032.348.095.065.065.109.175.131.332l.105,1.344Z" style="fill:#132c50;"/><path d="m43.588,114.905c-.192.232-.422.435-.69.606-.266.172-.553.313-.859.424-.305.11-.622.193-.947.248-.326.056-.649.083-.969.083-.611,0-1.174-.103-1.69-.309-.514-.206-.959-.51-1.334-.908-.376-.398-.668-.892-.877-1.48-.21-.588-.315-1.264-.315-2.026,0-.616.095-1.193.283-1.728.191-.535.462-1,.816-1.393.356-.392.789-.7,1.301-.925.512-.224,1.089-.336,1.729-.336.529,0,1.019.089,1.47.266s.842.434,1.169.769c.33.335.587.748.772,1.239.187.492.281,1.052.281,1.68,0,.244-.027.408-.079.489-.053.082-.152.122-.297.122h-5.909c.017.56.094,1.045.231,1.458.137.414.327.759.572,1.035.244.276.535.483.874.619.337.137.715.205,1.134.205.39,0,.726-.045,1.008-.136.282-.089.525-.187.73-.292.203-.105.374-.201.511-.292.137-.091.254-.136.353-.136.128,0,.226.05.297.148l.436.568Zm-1.257-4.147c0-.361-.051-.69-.151-.99-.103-.301-.252-.56-.446-.777-.194-.219-.431-.387-.712-.506-.279-.12-.596-.18-.951-.18-.745,0-1.334.217-1.767.65-.435.434-.704,1.035-.809,1.802h4.836Z" style="fill:#132c50;"/><path d="m46.137,108.55c.489-.472,1.016-.824,1.58-1.056.565-.233,1.19-.35,1.877-.35.495,0,.933.082,1.317.244.385.162.709.39.97.681.261.291.459.643.594,1.057.133.413.2.866.2,1.361v5.656h-.689c-.152,0-.269-.025-.349-.073-.082-.05-.147-.148-.193-.293l-.173-.838c-.233.216-.459.407-.682.572-.22.166-.453.306-.698.419-.244.114-.504.202-.781.263-.276.061-.584.091-.921.091-.343,0-.667-.049-.969-.144-.303-.097-.566-.241-.791-.432-.224-.192-.401-.435-.533-.728-.13-.294-.195-.643-.195-1.043,0-.349.095-.686.288-1.008.192-.324.503-.61.934-.86.43-.251.992-.456,1.685-.616s1.542-.252,2.549-.275v-.689c0-.687-.148-1.206-.446-1.558-.296-.352-.731-.528-1.3-.528-.384,0-.706.048-.965.144-.259.095-.483.203-.672.323-.188.12-.352.227-.489.323-.137.096-.271.144-.406.144-.105,0-.195-.028-.27-.083-.076-.055-.14-.123-.192-.205l-.28-.497Zm5.02,3.614c-.716.023-1.326.079-1.829.17-.503.09-.914.208-1.23.353-.318.145-.547.318-.69.516-.142.198-.213.419-.213.664,0,.232.037.434.112.602.076.169.18.307.31.414.131.107.285.186.462.236.178.049.369.074.572.074.274,0,.524-.028.751-.083.226-.056.441-.136.641-.241.201-.104.394-.23.577-.375.183-.146.362-.312.537-.497v-1.833Z" style="fill:#132c50;"/><path d="m58.374,116.285c-.698,0-1.234-.195-1.61-.585-.374-.39-.562-.952-.562-1.685v-5.412h-1.066c-.093,0-.171-.028-.235-.083-.065-.055-.098-.14-.098-.258v-.619l1.449-.183.359-2.732c.017-.087.056-.159.117-.214.061-.055.142-.083.24-.083h.787v3.046h2.556v1.127h-2.556v5.306c0,.373.089.65.27.83.18.181.413.271.698.271.164,0,.304-.022.424-.066.119-.044.222-.092.309-.144.088-.052.161-.1.222-.144.061-.043.115-.065.161-.065.083,0,.155.049.22.148l.453.742c-.268.25-.59.447-.969.59-.379.142-.768.214-1.17.214Z" style="fill:#132c50;"/><path d="m69.784,114.905c-.192.232-.423.435-.689.606-.269.172-.555.313-.86.424-.305.11-.621.193-.947.248-.326.056-.649.083-.969.083-.611,0-1.174-.103-1.689-.309-.516-.206-.96-.51-1.337-.908-.374-.398-.667-.892-.877-1.48-.209-.588-.313-1.264-.313-2.026,0-.616.094-1.193.283-1.728.188-.535.461-1,.816-1.393.354-.392.788-.7,1.3-.925.512-.224,1.087-.336,1.728-.336.53,0,1.02.089,1.471.266.452.177.84.434,1.17.769.327.335.587.748.772,1.239.186.492.279,1.052.279,1.68,0,.244-.026.408-.078.489-.053.082-.151.122-.297.122h-5.909c.017.56.094,1.045.231,1.458.137.414.327.759.572,1.035.244.276.535.483.872.619.337.137.716.205,1.135.205.39,0,.726-.045,1.008-.136.282-.089.525-.187.728-.292.205-.105.374-.201.511-.292.137-.091.255-.136.354-.136.127,0,.227.05.297.148l.436.568Zm-1.256-4.147c0-.361-.051-.69-.154-.99-.102-.301-.249-.56-.445-.777-.195-.219-.432-.387-.711-.506-.28-.12-.596-.18-.952-.18-.744,0-1.334.217-1.768.65-.433.434-.701,1.035-.806,1.802h4.836Z" style="fill:#132c50;"/><path d="m74.035,109.075c.28-.606.622-1.079,1.03-1.419.408-.341.904-.511,1.493-.511.186,0,.364.021.536.061.172.04.324.105.458.192l-.114,1.161c-.035.145-.122.219-.261.219-.082,0-.202-.017-.358-.052-.156-.035-.335-.053-.533-.053-.279,0-.528.04-.745.122-.219.082-.414.203-.585.363-.172.16-.326.357-.463.593-.137.236-.26.506-.371.808v5.586h-1.561v-8.842h.889c.169,0,.286.032.349.095.064.065.108.175.132.332l.104,1.344Z" style="fill:#132c50;"/><path d="m90.175,110.13v4.801c-.628.455-1.3.793-2.012,1.018-.712.224-1.494.336-2.343.336-1.007,0-1.915-.156-2.724-.468-.809-.31-1.5-.748-2.072-1.309-.574-.562-1.014-1.235-1.323-2.021-.309-.786-.463-1.65-.463-2.593,0-.954.15-1.824.45-2.61.301-.786.726-1.459,1.279-2.021.554-.561,1.226-.996,2.016-1.305.792-.308,1.676-.462,2.654-.462.495,0,.954.037,1.38.109.425.073.817.177,1.178.314.362.137.695.303,1.004.497.308.195.596.416.864.66l-.48.767c-.076.117-.174.192-.293.224-.118.032-.252.004-.396-.083-.139-.082-.301-.181-.481-.297-.18-.116-.4-.228-.657-.336-.259-.107-.565-.199-.916-.275-.353-.076-.77-.113-1.254-.113-.704,0-1.342.115-1.911.344-.571.23-1.057.558-1.459.986-.401.428-.709.945-.924,1.554-.216.609-.324,1.29-.324,2.047,0,.786.111,1.488.336,2.108.225.621.545,1.147.96,1.581.415.432.921.764,1.515.99.593.227,1.259.341,1.999.341.582,0,1.097-.066,1.549-.197.45-.131.891-.313,1.322-.545v-2.75h-1.948c-.11,0-.198-.032-.266-.095-.066-.065-.1-.143-.1-.236v-.96h3.842Z" style="fill:#132c50;"/><path d="m96.756,107.162c.646,0,1.228.107,1.746.324.518.215.96.52,1.327.917.367.396.646.874.842,1.436.196.561.293,1.189.293,1.88,0,.699-.098,1.327-.293,1.885-.195.56-.475,1.036-.842,1.432-.367.396-.809.7-1.327.913-.518.211-1.1.318-1.746.318-.651,0-1.238-.106-1.76-.318-.52-.213-.963-.517-1.329-.913-.368-.396-.647-.873-.843-1.432-.195-.558-.293-1.186-.293-1.885,0-.692.098-1.32.293-1.88.196-.562.475-1.04.843-1.436.367-.396.809-.701,1.329-.917.522-.216,1.108-.324,1.76-.324Zm0,7.891c.872,0,1.525-.292,1.955-.877.431-.584.646-1.4.646-2.449s-.215-1.873-.646-2.461c-.43-.588-1.083-.882-1.955-.882-.442,0-.829.076-1.156.227-.33.152-.604.37-.821.655-.218.285-.381.635-.489,1.052-.107.415-.161.886-.161,1.409,0,1.048.218,1.865.65,2.449.434.585,1.092.877,1.977.877Z" style="fill:#132c50;"/><path d="m107.387,107.162c.646,0,1.228.107,1.746.324.518.215.96.52,1.327.917.367.396.648.874.842,1.436.195.561.292,1.189.292,1.88,0,.699-.097,1.327-.292,1.885-.194.56-.475,1.036-.842,1.432-.367.396-.809.7-1.327.913-.518.211-1.1.318-1.746.318-.651,0-1.238-.106-1.758-.318-.52-.213-.965-.517-1.332-.913-.366-.396-.647-.873-.842-1.432-.194-.558-.292-1.186-.292-1.885,0-.692.098-1.32.292-1.88.194-.562.475-1.04.842-1.436.367-.396.811-.701,1.332-.917.52-.216,1.107-.324,1.758-.324Zm0,7.891c.874,0,1.525-.292,1.956-.877.43-.584.645-1.4.645-2.449s-.215-1.873-.645-2.461c-.431-.588-1.083-.882-1.956-.882-.442,0-.827.076-1.157.227-.328.152-.601.37-.82.655-.219.285-.381.635-.489,1.052-.107.415-.161.886-.161,1.409,0,1.048.216,1.865.65,2.449.434.585,1.092.877,1.977.877Z" style="fill:#132c50;"/><path d="m121.606,103.286v12.858h-.925c-.221,0-.361-.108-.419-.323l-.139-1.074c-.379.455-.809.821-1.293,1.1-.483.28-1.041.419-1.675.419-.507,0-.967-.098-1.38-.292-.413-.196-.765-.481-1.056-.86-.291-.377-.516-.849-.672-1.414-.158-.565-.236-1.213-.236-1.947,0-.651.087-1.258.262-1.821.175-.561.425-1.048.751-1.461.325-.413.726-.738,1.2-.974.474-.236,1.008-.353,1.601-.353.543,0,1.007.092,1.393.275.387.183.732.437,1.034.763v-4.897h1.554Zm-1.554,6.119c-.291-.39-.604-.662-.942-.816-.337-.154-.715-.231-1.135-.231-.82,0-1.452.293-1.894.881-.442.589-.662,1.426-.662,2.514,0,.576.049,1.069.148,1.48.099.41.244.748.436,1.012.192.265.428.459.706.582.28.122.597.183.953.183.511,0,.958-.117,1.339-.349.381-.234.732-.562,1.051-.986v-4.269Z" style="fill:#132c50;"/></g><path d="m125.638,102.322c.177,0,.347.022.511.065.164.043.315.103.457.181.142.078.271.171.389.28.117.11.218.231.301.363.083.133.147.276.193.429.045.153.068.312.068.476,0,.164-.023.322-.068.475-.046.153-.11.295-.193.426-.083.132-.183.253-.301.362-.117.109-.247.203-.389.28-.142.078-.293.138-.457.181-.164.043-.334.065-.511.065-.176,0-.346-.022-.508-.065-.162-.043-.314-.103-.455-.181-.142-.077-.271-.171-.387-.28-.116-.109-.216-.23-.299-.362-.083-.132-.148-.274-.193-.425-.046-.153-.07-.312-.07-.477s.023-.324.07-.476c.045-.153.11-.296.193-.429.083-.132.183-.253.299-.363.116-.109.246-.202.387-.28.14-.078.292-.138.455-.181.162-.043.332-.065.508-.065Zm0,3.297c.148,0,.288-.018.423-.054.136-.036.261-.086.379-.15.116-.065.222-.143.319-.233.096-.09.177-.192.246-.303.067-.111.12-.231.156-.359.037-.128.056-.263.056-.403s-.019-.276-.056-.404c-.037-.13-.089-.25-.156-.363-.068-.113-.149-.215-.246-.307-.097-.09-.203-.17-.319-.235-.117-.066-.243-.116-.379-.152-.135-.037-.275-.054-.423-.054-.147,0-.286.017-.42.054-.132.036-.256.086-.374.152-.115.065-.22.144-.315.235-.093.092-.175.194-.242.307-.068.112-.12.233-.156.363-.037.128-.054.264-.054.404,0,.21.04.407.12.59.081.183.191.342.332.477.139.136.306.242.495.319.191.078.395.117.615.117Zm-.01-2.598c.323,0,.56.055.711.164.15.107.225.263.225.466,0,.144-.039.27-.118.377s-.204.186-.371.233c.038.023.071.05.098.082.027.032.052.068.077.11l.469.745h-.533c-.077,0-.132-.027-.162-.079l-.374-.639c-.017-.022-.037-.04-.059-.052-.021-.011-.054-.017-.097-.017h-.144v.788h-.557v-2.178h.836Zm-.049,1.018c.089,0,.162-.007.219-.021.056-.013.1-.034.133-.062.032-.027.054-.061.066-.101.012-.04.017-.087.017-.138s-.005-.095-.015-.133c-.011-.038-.03-.07-.058-.094-.029-.026-.068-.044-.119-.056-.05-.012-.115-.018-.194-.018h-.279v.624h.23Z" style="fill:#132c50;"/></g></g><g id="b"><g id="c"><g><path d="m173.2,32.4c-1.5-.2-5.6-1.4-5.4-11.3.2-9.9,3.3-10.2,4.8-9.7,2.6,1,7.7,10.2,6.3,15.1-1.6,4.9-4.3,6.2-5.7,5.9Z" style="fill:#983596;"/><path d="m131.6,17.5s1.2,7.8,6.8,7.5c5.7-.3,5.2-7.8,3.7-12.2-1.8-5.2-5.5-11-8.8-6.5-1.9,2.8-1.8,9.3-1.7,11.2Z" style="fill:#983596;"/><path d="m151.8,2.4s-5,8.4-.7,15.6c4.2,7.2,9.1.6,9.5-3.9s-1.2-10.5-3.5-12.4c-1.7-1.3-4.2-1.4-5.3.7Z" style="fill:#983596;"/><path d="m121.3,26.6s-3.8,9.1,1.1,13.6,9-2.6,6.5-9.6c-2.6-7.3-6.2-7.4-7.6-4Z" style="fill:#983596;"/><path d="m152.1,27.5c-1.7,1.5-3,3.7-9,3.2s-8.5,5.4-9.4,7.7c-.9,2.4-1.6,5.4-3.1,8.2-.6,1.2-3.7,7.4,1.1,10.9,4.8,3.4,7.4.9,9,.3,1.5-.6,5.3-1.2,10.2,1.1s8.2-1.6,10.2-3.7c1.9-2.1,7.2-2.5,9.3-3,2-.5,10-6.8,1.2-14.7s-7.5-8.7-9.8-10.4c-2.5-1.8-8.1-1.1-9.7.4Z" style="fill:#983596;"/></g><g><path d="m15.1,35c-1.2.3-2.4.4-3.6.4-5.8,0-7.2-2.6-7.2-5.9v-15.2H0v-3.5h4.3v-5.7l4.5-2.8v8.5h6.7v3.5h-6.6v12.8c0,2.2.3,4.7,3.8,4.7.8,0,1.8-.2,2.4-.4v3.6Z"/><path d="m17.6,0h4.5v15.9h.1c.8-2,2.7-5.7,7.6-5.7,5.5,0,6.5,4.9,6.5,7.9v16.7h-4.5v-13.1c0-4.4,0-6.9-3.3-6.9-3.7,0-6.4,5-6.4,9.8v10.2h-4.5V0Z"/><path d="m56.2,34.5c-2,.5-3.4.8-6,.8-7.3,0-11.9-4.3-11.9-13.7,0-10.3,6.7-11.4,9.8-11.4,5.9,0,8.7,4,8.7,9.6v1.2h-14c0,4.5,2.3,10.8,8.8,10.8,2.1,0,3.5-.5,4.5-.9l.1,3.6h0Zm-4-16.5c0-1.5-.9-4.2-4.4-4.2-3.7,0-4.8,3.2-4.8,4.2h9.2Z"/><path d="m13.9,62.3h-.1c-.6,1.3-2.5,3.5-6.2,3.5-4.5,0-6.8-2.7-6.8-6.5,0-6.4,7-7.9,13.1-7.9v-4.2c-.4-2.3-2-3.1-3.7-3.1-2.7,0-3.8,1.8-3.8,3.7H1.6c0-3.8,2.3-7.2,9-7.2,7.9,0,7.9,5.9,7.9,8.1v16.5h-4.5v-2.9h-.1Zm-.9-7.8c-3.6,0-7.2,1.6-7.2,4.7,0,1.9,1.3,3.1,2.6,3.1,3.1,0,5.4-3.6,5.4-6.4v-1.4h-.8Z"/><path d="m21.9,41.3h4.5v5.1h.1c.8-2,2.7-5.7,7.6-5.7,5.5,0,6.5,4.9,6.5,7.9v16.7h-4.5v-13.1c0-4.4,0-6.9-3.3-6.9-3.7,0-6.4,5-6.4,9.8v10.2h-4.5v-24Z"/><path d="m44.8,41.3h4.5v24h-4.5v-24Z"/><path d="m53.7,41.3h4.5v4.8h.1c.7-1.9,2.4-5.3,6.7-5.3,4.2,0,5.8,2.9,6.1,5.1h.1c.8-2,2.8-5.1,6.8-5.1,5.7,0,6.5,4.9,6.5,7.9v16.7h-4.5v-13.2c0-4.5,0-6.9-3.3-6.9-2.8,0-5.3,4.5-5.3,8.5v11.5h-4.5v-13.1c0-4.4,0-6.9-3.2-6.9s-5.4,5-5.4,9.8v10.2h-4.5l-.1-24h0Z"/><path d="m99.7,62.3h0c-.7,1.3-2.6,3.5-6.3,3.5-4.5,0-6.8-2.7-6.8-6.5,0-6.4,7-7.9,13.1-7.9v-4.2c-.4-2.3-2-3.1-3.7-3.1-2.7,0-3.8,1.8-3.8,3.7h-4.8c0-3.8,2.3-7.2,9-7.2,7.9,0,7.9,5.9,7.9,8.1v16.5h-4.5l-.1-2.9h0Zm-.9-7.8c-3.6,0-7.2,1.6-7.2,4.7,0,1.9,1.3,3.1,2.6,3.1,3.1,0,5.4-3.6,5.4-6.4v-1.4s-.8,0-.8,0Z"/><path d="m108.2,30.5h4.5v34.8h-4.5V30.5Z"/><path d="m2.4,71.7h4.5v4.8h.1c.7-1.9,2.7-5.4,7.4-5.4v4.9c-4.1,0-7.5,2.1-7.5,9.4v10.2H2.4v-23.9Z"/><path d="m32.8,95.5c-2,.5-3.4.8-6,.8-7.3,0-11.9-4.3-11.9-13.7,0-10.3,6.7-11.4,9.8-11.4,5.9,0,8.7,4,8.7,9.6v1.2h-13.9c0,4.5,2.3,10.8,8.8,10.8,2.1,0,3.5-.5,4.5-.9v3.6Zm-4-16.5c0-1.5-.9-4.2-4.4-4.2-3.7,0-4.8,3.2-4.8,4.2h9.2Z"/><path d="m44.6,81.9c2.5,1.6,5.5,3.1,5.5,7.1,0,5-3.6,7.3-9,7.3-3.3,0-5.4-.7-6.5-1v-4c.5.2,3.5,1.4,6.1,1.4,2.2,0,4.9-.6,4.9-3.1,0-1.8-2.2-2.8-3.8-3.9l-2.3-1.4c-2.2-1.4-4.8-3-4.8-6.5,0-4.3,3.5-6.7,8.5-6.7,2.4,0,4.3.7,5.5.9v4.1c-.7-.3-2.9-1.4-5.5-1.4-2,0-3.9,1.1-3.9,2.6,0,1.7,1.9,2.6,3.5,3.5l1.8,1.1Z"/><path d="m69.3,95.4c-1.8.6-3.8.9-6.7.9-9.2,0-11.8-7.5-11.8-13.4,0-6.7,3.1-11.7,10.2-11.7,6.8,0,8.6,4.4,8.6,8.4h-5.2c0-1.8-.4-4.8-3.7-4.8-3,0-4.9,2.9-4.9,7.3,0,4.7,2,10.7,9.5,10.7,1.3,0,2.5-.1,3.8-.5v3.1h.2Z"/><path d="m85.6,90.6h0c-.9,2-2.8,5.7-7.7,5.7-5.6,0-6.5-4.9-6.5-7.9v-16.7h4.5v13.2c0,4.5,0,6.9,3.3,6.9,3.7,0,6.4-5,6.4-9.8v-10.3h4.5v24h-4.5s0-5.1,0-5.1Z"/><path d="m110.2,95.5c-2,.5-3.4.8-6,.8-7.3,0-11.9-4.3-11.9-13.7,0-10.3,6.7-11.4,9.8-11.4,5.9,0,8.7,4,8.7,9.6v1.2h-13.9c0,4.5,2.3,10.8,8.8,10.8,2.1,0,3.5-.5,4.5-.9v3.6Zm-4-16.5c0-1.5-.9-4.2-4.4-4.2-3.7,0-4.8,3.2-4.8,4.2h9.2Z"/><path d="m134.4,81.9c2.5,1.6,5.5,3.1,5.5,7.1,0,5-3.6,7.3-9,7.3-3.3,0-5.4-.7-6.5-1v-4c.5.2,3.5,1.4,6.1,1.4,2.2,0,4.9-.6,4.9-3.1,0-1.8-2.2-2.8-3.8-3.9l-2.3-1.4c-2.2-1.4-4.8-3-4.8-6.5,0-4.3,3.5-6.7,8.5-6.7,2.4,0,4.3.7,5.5.9v4.1c-.7-.3-2.9-1.4-5.5-1.4-2,0-3.9,1.1-3.9,2.6,0,1.7,1.9,2.6,3.5,3.5l1.8,1.1Z"/><path d="m141.7,71.7h4.5v24h-4.5v-24Z"/><path d="m163.3,96c-1.2.3-2.4.4-3.6.4-5.8,0-7.2-2.6-7.2-5.9v-15.2h-4.3v-3.5h4.3v-5.7l4.5-2.8v8.5h6.7v3.5h-6.7v12.8c0,2.2.3,4.7,3.8,4.7.8,0,1.8-.2,2.4-.4v3.6h.1Z"/><path d="m181.9,95.5c-2,.5-3.4.8-6,.8-7.3,0-11.9-4.3-11.9-13.7,0-10.3,6.7-11.4,9.8-11.4,5.9,0,8.7,4,8.7,9.6v1.2h-13.9c0,4.5,2.3,10.8,8.8,10.8,2.1,0,3.5-.5,4.5-.9v3.6h0Zm-4-16.5c0-1.5-.9-4.2-4.4-4.2-3.7,0-4.8,3.2-4.8,4.2h9.2Z"/></g></g><path d="m185,69h-1.5v-.9h3.9v.9h-1.5v5.1h-.9v-5.1Zm3.1-.9h1.6l1,4.7h0l1-4.7h1.6v6h-.9v-5.4h0l-1.2,5.4h-1.1l-1.2-5.4h0v5.4h-.9l.1-6h0Z"/></g></svg>