<!DOCTYPE svg PUBLIC "-//W3C//DTD SVG 1.1//EN" "http://www.w3.org/Graphics/SVG/1.1/DTD/svg11.dtd">
<!-- Uploaded to: SVG Repo, www.svgrepo.com, Transformed by: SVG Repo Mixer Tools -->
<svg height="800px" width="800px" version="1.1" id="Layer_1" xmlns="http://www.w3.org/2000/svg" xmlns:xlink="http://www.w3.org/1999/xlink" viewBox="0 0 512 512" xml:space="preserve" fill="#000000">
<g id="SVGRepo_bgCarrier" stroke-width="0"/>
<g id="SVGRepo_tracerCarrier" stroke-linecap="round" stroke-linejoin="round"/>
<g id="SVGRepo_iconCarrier"> <g> <path id="SVGCleanerId_0" style="fill:#141d48;" d="M0,341.794v49.099c0,10.823,8.766,19.588,19.588,19.588H512v-88.276H19.588 C8.766,322.205,0,330.98,0,341.794"/> <g> <path style="fill:#9c9ea5;" d="M17.655,331.034c-4.873,0-8.828-3.946-8.828-8.828V207.448c0-4.882,3.955-8.828,8.828-8.828 s8.828,3.946,8.828,8.828v114.759C26.483,327.089,22.528,331.034,17.655,331.034"/> <path style="fill:#9c9ea5;" d="M52.966,331.034c-4.873,0-8.828-3.946-8.828-8.828V207.448c0-4.882,3.955-8.828,8.828-8.828 s8.828,3.946,8.828,8.828v114.759C61.793,327.089,57.838,331.034,52.966,331.034"/> <path style="fill:#9c9ea5;" d="M88.276,331.034c-4.873,0-8.828-3.946-8.828-8.828V207.448c0-4.882,3.955-8.828,8.828-8.828 c4.873,0,8.828,3.946,8.828,8.828v114.759C97.103,327.089,93.149,331.034,88.276,331.034"/> <path style="fill:#9c9ea5;" d="M123.586,331.034c-4.873,0-8.828-3.946-8.828-8.828V207.448c0-4.882,3.955-8.828,8.828-8.828 s8.828,3.946,8.828,8.828v114.759C132.414,327.089,128.459,331.034,123.586,331.034"/> <path style="fill:#9c9ea5;" d="M158.897,331.034c-4.873,0-8.828-3.946-8.828-8.828V207.448c0-4.882,3.955-8.828,8.828-8.828 c4.873,0,8.828,3.946,8.828,8.828v114.759C167.724,327.089,163.769,331.034,158.897,331.034"/> <path style="fill:#9c9ea5;" d="M194.207,331.034c-4.873,0-8.828-3.946-8.828-8.828V207.448c0-4.882,3.955-8.828,8.828-8.828 s8.828,3.946,8.828,8.828v114.759C203.034,327.089,199.08,331.034,194.207,331.034"/> <path style="fill:#9c9ea5;" d="M229.517,331.034c-4.873,0-8.828-3.946-8.828-8.828V207.448c0-4.882,3.955-8.828,8.828-8.828 s8.828,3.946,8.828,8.828v114.759C238.345,327.089,234.39,331.034,229.517,331.034"/> <path style="fill:#9c9ea5;" d="M264.828,331.034c-4.873,0-8.828-3.946-8.828-8.828V207.448c0-4.882,3.955-8.828,8.828-8.828 s8.828,3.946,8.828,8.828v114.759C273.655,327.089,269.7,331.034,264.828,331.034"/> <path style="fill:#9c9ea5;" d="M300.138,331.034c-4.873,0-8.828-3.946-8.828-8.828V207.448c0-4.882,3.955-8.828,8.828-8.828 c4.873,0,8.828,3.946,8.828,8.828v114.759C308.966,327.089,305.011,331.034,300.138,331.034"/> </g> <g> <path id="SVGCleanerId_0_1_" style="fill:#141d48;" d="M0,341.794v49.099c0,10.823,8.766,19.588,19.588,19.588H512v-88.276H19.588 C8.766,322.205,0,330.98,0,341.794"/> </g> <path style="fill:#252E49;" d="M361.931,410.483h70.621v-88.276h-70.621V410.483z"/> <path style="fill:#f08f8f;" d="M26.483,207.448c-53.795-53.795,35.31-105.931,35.31-105.931s-25.379,52.966,52.966,52.966H256 c0,0,52.966-6.065,52.966,52.966H26.483z"/> </g> </g>
</svg>